<svg width="539" height="299" viewBox="0 0 539 299" fill="none" xmlns="http://www.w3.org/2000/svg">
<path fill-rule="evenodd" clip-rule="evenodd" d="M3.22 85.1797C5.06 86.1197 6.47 87.3497 7.94 88.7597C10.05 90.7897 10.86 91.2397 12.78 92.9497C25.97 104.72 24.71 106.57 35.92 105.59C41.48 105.11 47.27 104.94 52.58 104.16L50.08 92.4997C47.13 90.9097 38.62 91.4497 34.74 81.3697C30.76 71.0297 38.51 64.9697 40.67 61.7697C34.72 61.9897 31.34 61.3497 27.09 58.4797C21.7 54.8497 23.19 53.4497 19.44 49.3397C17.19 52.3297 3.75 81.3597 3.22 85.1797ZM63.27 149.92C67.55 150.56 73.55 150.07 78.16 150.37C80.54 150.53 82.99 150.67 85.37 150.9C86.35 150.99 87.66 151.22 88.57 151.26L91.85 150.79C92.61 149.72 96.5 142.37 96.71 140.83C96.95 139.09 85.34 109.45 83.26 106.99L63.27 149.92ZM40.72 17.8597C44.12 18.2397 46.75 19.5997 46.61 20.9097C46.46 22.2097 43.59 22.9697 40.2 22.5897C36.8 22.2097 34.17 20.8497 34.32 19.5397C34.45 18.2297 37.32 17.4797 40.72 17.8597ZM37.72 28.8097C44.96 28.8097 50.83 35.0897 50.83 42.8397C50.83 50.5897 44.96 56.8697 37.72 56.8697C30.48 56.8697 24.61 50.5897 24.61 42.8397C24.6 35.0897 30.48 28.8097 37.72 28.8097ZM30.81 18.9997C31.71 22.3497 32.65 20.3597 33.72 23.1597C30.68 28.1997 23.38 23.2597 18.98 40.6197L17.86 43.1097C14.97 47.8797 19.03 45.4597 15.7 52.0097C12.98 57.3597 0.69 80.7397 0 85.0097C9.24 93.1597 18.2 102.16 27.62 111.41C31.4 115.13 50.07 144.25 55.09 151.91C56.84 154.58 59.88 157.32 57.91 160.76L30.5 202.1C28.48 205.19 26.67 207.28 25.28 210.2L41.28 211.57C41.61 214.78 26.88 242.6 24.56 248.24C22.43 253.4 37.46 274.68 40.57 285.38C38.42 288.76 32.56 291.62 35.4 294.88C36.81 294.3 43.09 287.38 43.9 286.07C42.11 278.89 26.28 253.13 27.28 248.94C27.59 247.65 44.01 213.47 45.11 212.06L64.56 213.41L62.88 249.42L112.93 239.68C113.31 241.48 113.56 242.54 113.89 244.32C114.87 249.54 114.54 248.01 115.87 248.73C117.85 247.55 116.83 249.58 117.05 246.69C117.1 246.06 115.65 238.41 114.48 236.39L65.97 245.79L67.52 213.95L84.86 214.95C82.92 206.72 69.33 183.12 67.31 175C69.09 176.09 70.84 177.93 73.29 179.45C81.39 184.46 91.51 184.86 100.04 181.47C104.74 179.6 109.99 175.5 112.56 172.48C114.67 170 120.18 162.95 119.97 158.44C114.86 154.66 102.33 152.7 94.83 152.13C95.62 148.03 99.97 142.87 99.68 139.9C99.53 138.31 95.81 129.39 95.02 127.24C92.58 120.61 88.56 108.2 85.34 102.21C76.75 101.05 64.17 104.76 55.51 103.72L52.65 91.8497C56.51 90.7997 59.43 89.3997 61.71 86.9297C62.45 86.1297 63.84 84.3397 64.57 82.8397C65.19 81.5597 65.03 81.7497 65.47 80.3097L66.62 77.0497C70.98 79.6497 66.87 77.2397 67.81 81.5997C70.14 81.3397 68.88 81.4397 69.9 80.4997C72.31 78.2897 69.2 81.3097 70.57 79.6797C70.67 79.5597 70.79 79.3597 70.87 79.2597C73.11 76.3897 68.74 79.9797 71.48 78.4597C73.71 79.5897 70.77 76.6997 72.68 80.1497C73.08 80.8597 72.06 80.8997 74.25 81.8397C75.94 80.2397 75.12 79.6797 74.01 78.0897C89.41 73.3897 73.17 51.0297 63.74 66.8097C57.16 60.2297 58.09 60.7697 46.89 59.5497C53.4 57.5297 61.83 42.5897 52.96 31.2997C51.01 28.8197 46.47 26.3597 45.41 24.5697C46.84 22.8097 47.42 23.6197 49.59 21.7997C49.25 15.9997 33.84 14.5297 30.81 18.9997Z" fill="white"/>
<path fill-rule="evenodd" clip-rule="evenodd" d="M61.8203 152.67C62.4503 154.52 61.7603 153.67 63.5003 154.59C65.8903 155.86 84.5903 158.9 87.8703 158.86L90.7603 152.71L68.6703 151.28C60.7303 151.26 63.1103 152.04 61.8203 152.67Z" fill="white"/>
<path fill-rule="evenodd" clip-rule="evenodd" d="M91.5925 159.339C94.9625 160.089 100.963 160.239 104.763 160.359L118.653 159.119C115.413 155.619 99.7125 153.369 93.5225 153.279C92.5825 155.819 90.8325 157.289 91.5925 159.339Z" fill="white"/>
<path fill-rule="evenodd" clip-rule="evenodd" d="M263.532 22.7095C262.572 21.1895 263.152 24.2995 262.792 20.8595C262.602 19.0295 263.702 17.7495 263.442 15.5295C262.952 11.4295 254.232 17.2095 251.722 18.1395C247.152 19.8295 246.692 17.7195 246.242 21.8495C246.222 22.0695 246.232 22.2595 246.222 22.4795L246.372 24.1295C247.272 36.1195 244.962 42.7495 244.562 49.2895C244.312 53.4095 247.812 53.4895 249.442 52.0395C251.082 50.5895 251.212 48.4495 251.222 48.3995C253.472 48.4495 251.962 47.5295 252.682 49.2795C253.122 50.3595 253.042 49.4695 250.392 53.4495C248.452 56.3695 241.422 64.7195 254.062 56.5795C256.262 55.1695 255.132 55.7695 256.392 54.0495L263.472 46.6395C263.892 46.1095 264.342 45.5195 264.712 45.0795L270.402 36.1495C270.472 36.0095 270.562 35.8295 270.632 35.6895L276.412 15.1495C276.832 11.2695 276.472 8.88953 276.872 6.35953C274.742 6.92953 273.582 7.79953 271.832 9.14953C269.622 10.8595 271.442 9.82953 269.162 10.6395C266.212 11.6795 265.462 11.4395 264.742 13.6095L263.532 22.7095ZM229.052 24.6395L231.652 38.0695C233.512 38.3495 234.792 38.4595 231.892 37.7895L233.182 43.0695C234.872 43.0195 235.462 42.6795 236.192 42.5095C234.282 44.3195 236.892 38.9295 236.192 43.1995C236.142 43.5095 238.522 44.7495 235.982 43.4095C235.392 45.9095 235.642 43.5595 235.392 43.6195C235.332 43.6295 235.122 43.6495 235.052 43.6695L233.652 44.0295C235.422 48.5695 235.722 50.9395 237.952 55.0795C237.992 55.1595 238.092 55.3395 238.132 55.4195L239.062 57.7195C239.322 58.2995 239.752 59.1095 240.132 59.6995C241.972 58.8795 240.272 60.0395 241.462 57.2995C243.182 53.3595 244.732 42.1795 244.802 39.7895C244.802 39.7295 244.802 39.5295 244.812 39.4695C244.812 39.3395 244.782 38.7295 244.782 38.6095L245.532 31.5995C245.642 29.0295 245.692 21.8995 244.292 20.2795C239.202 22.0695 235.112 24.4695 229.052 24.6395ZM209.382 30.8295C209.762 33.5995 210.082 33.5895 211.732 35.7295C212.972 37.3395 213.622 38.1895 214.712 39.6095L220.522 46.3595C220.632 46.4795 220.762 46.6295 220.872 46.7495L224.912 50.9095C225.912 51.9295 225.682 51.6195 226.632 52.6595C228.042 54.1995 226.782 53.6495 229.492 55.3495C233.062 57.5895 233.892 59.0395 237.812 59.3895L235.342 52.2695C235.262 52.0595 235.032 51.4595 234.962 51.2495C234.662 50.4095 233.572 47.6595 233.502 47.4795C232.552 44.9595 233.962 50.0095 233.122 46.1095C231.762 39.7295 228.312 31.9295 228.862 25.3595L209.382 30.8295ZM209.622 53.0695L212.842 54.0895C214.752 54.7195 216.232 56.3995 221.792 58.4395C222.952 58.8695 224.162 59.2395 225.242 59.6495C235.642 63.5495 234.662 59.1295 234.142 62.8995C234.092 59.8495 234.052 62.4195 229.632 57.3195C228.752 56.2995 228.342 55.8895 227.192 54.8195L223.032 50.0295C219.802 46.4095 219.272 49.1695 217.242 46.9795C217.432 48.3595 219.342 47.0795 219.722 46.7895C218.232 45.5295 218.182 45.5395 217.742 43.4995C209.582 43.5195 214.402 44.4695 216.182 41.9595C214.162 40.9895 214.702 40.8795 212.632 38.1595L210.502 35.6795C208.052 33.2395 210.612 35.1695 207.532 31.1395L191.462 34.5595C187.582 35.7795 194.972 32.8495 190.292 34.9695C188.212 35.9095 190.302 34.1395 188.552 36.0495L193.212 40.2695C193.412 40.4795 194.252 41.3295 194.282 41.3595L209.622 53.0695C208.482 52.6395 206.952 52.0395 206.122 51.5995C205.992 51.5295 205.812 51.4295 205.682 51.3495L204.052 50.2495C203.932 50.1595 203.792 50.0295 203.672 49.9395C201.642 48.4795 196.032 47.6495 193.432 47.4795C195.662 48.8095 191.332 46.9395 195.572 48.0295C198.202 48.6995 197.582 48.9495 200.682 48.4695C198.572 44.5795 196.892 46.2195 192.972 45.3995C194.642 46.7095 195.762 45.7195 196.712 44.6995C193.362 42.7695 196.082 43.9595 194.082 42.1495C192.132 40.3795 192.412 41.5895 191.382 40.1295C190.432 38.7795 188.682 36.0495 186.042 34.9995C183.922 36.6395 185.992 34.1495 185.272 36.1895C184.112 39.4495 186.702 35.2095 185.342 36.9395C183.712 35.6695 183.792 35.6595 181.082 35.6995L178.202 36.1995C178.072 36.2495 177.872 36.3595 177.772 36.4095L177.072 37.2095C177.082 37.3395 177.132 37.4695 177.142 37.5095C177.962 39.4395 176.072 35.5495 177.412 38.0995L183.342 46.7295L187.712 48.8595L185.612 50.1095C187.492 50.6495 189.042 52.1195 190.802 53.8495C194.442 57.4095 201.642 61.3495 206.472 63.1295C213.732 65.8095 223.332 67.0895 231.132 65.9795C229.212 64.7795 229.712 65.1495 227.102 65.1895C231.932 66.1895 230.112 64.4795 230.772 63.6595L222.162 59.8895C220.222 58.6195 218.842 58.9195 216.152 58.7395C216.152 58.7395 216.622 59.2795 217.392 58.7895C219.362 57.5495 218.502 59.5195 217.952 57.4795C215.682 56.7295 210.532 55.1895 209.622 53.0695ZM174.942 33.6095C187.172 37.4895 274.332 11.9195 276.672 2.55953C262.982 -0.730468 212.612 15.5695 196.312 21.6795C192.132 23.2495 188.382 24.9395 184.652 26.6895L176.372 30.8895C173.752 33.0995 175.122 30.6495 174.942 33.6095ZM188.752 93.2595C196.122 98.0695 206.622 102.4 214.362 106.56C222.122 110.74 220.252 110.48 230.422 109.72C236.602 109.26 242.642 108.68 249.052 108.28L246.802 96.2795C238.252 93.9895 234.952 93.2795 231.862 86.2695C227.522 76.4295 233.152 72.8095 235.442 67.3395C202.862 70.9395 200.262 60.6695 190.042 56.9595L188.752 93.2595ZM186.262 95.3495C190.732 98.8095 202.312 104.16 208.022 107.33C232.042 120.68 222.532 111.99 242.142 141.24C243.612 143.43 253.792 159.88 256.092 161.48C260.532 155.91 276.212 115.02 280.342 110.49C282.062 115.53 293.902 142.03 293.342 145.05C292.792 148.06 278.672 172.66 277.712 177.24C278.772 178.42 280.592 180.55 282.122 181.11C285.312 176.18 278.772 179.77 282.622 172.53C284.292 169.4 285.822 166.3 287.272 163.3C288.882 159.99 295.972 147.07 296.262 145.11C296.592 142.84 283.572 108.66 281.752 105.88L252.042 107.98L249.452 96.0695C257.502 91.6295 260.852 91.6895 262.952 80.8195C274.632 85.6195 277.972 76.8395 276.552 71.4295C275.702 68.1595 273.172 65.7395 269.212 65.4495C264.052 65.0695 262.592 68.1795 260.252 70.4495C256.332 66.5595 254.382 64.3495 246.912 63.3895C252.662 58.4095 257.492 59.0195 267.562 45.0895C276.662 32.4895 283.842 2.60953 277.412 0.509531C263.612 -4.00047 174.242 22.6295 172.162 33.0695C171.192 37.9395 183.852 49.5695 186.172 54.2395L187.292 57.2695C188.042 62.2895 185.612 86.1495 186.262 95.3495Z" fill="white"/>
<path fill-rule="evenodd" clip-rule="evenodd" d="M222.388 214.33L238.618 215.58C237.168 221.4 224.398 244.46 221.448 252.21C220.088 255.78 226.698 266.8 228.608 270.6C230.618 274.63 236.748 285.98 237.438 289.58C235.488 291.69 230.598 295.54 231.788 298.63C235.828 298.12 234.628 295.32 240.858 290.53C239.848 284.14 223.198 256.92 224.048 253.3C224.628 250.8 240.758 217.43 242.218 215.98L256.548 217.01L254.668 253.37C263.368 252.51 300.568 243.15 304.948 244.16L306.438 251.06C307.588 252.85 306.128 251.72 308.118 252.45C308.218 252.27 308.308 251.77 308.328 251.87C308.348 251.97 308.488 251.44 308.508 251.29C308.688 250.13 308.758 251.43 308.668 249.53L306.798 240.14L257.598 249.73L259.308 217.82C263.278 216.52 276.388 218.7 281.658 218.83L256.398 162.97C255.338 163.68 255.718 163.29 254.908 164.19C254.258 164.92 254.128 165.15 253.688 165.8C248.068 174.23 222.548 212.26 222.388 214.33Z" fill="white"/>
<path fill-rule="evenodd" clip-rule="evenodd" d="M275.09 73.5696C273.31 79.8396 264.31 80.8496 261.88 73.5696H256.07V75.0896C257.35 74.8596 258.43 74.2996 259.84 74.1496C258.69 75.8596 256.85 75.8096 256.07 77.7096V78.2696C257.38 77.5696 260.1 75.1196 261.02 76.6796C261.85 78.9996 259.24 78.9396 258.16 81.9996C260.21 81.1896 260.48 79.8296 262.22 78.5896L264.03 80.1996C263.56 82.1696 262.64 82.9196 261.89 84.6996C264.72 84.8296 262.99 79.7596 267.44 81.3496L267.83 85.7096C267.85 85.6396 267.93 86.0196 268 86.1596C268.51 84.8696 268.43 82.8096 268.44 81.1996L271.85 80.7096C272.33 82.0296 272.84 84.4996 274.19 85.0596C274.84 83.5896 273.21 82.1296 272.93 79.5996C276.05 77.6996 275.01 80.2496 277.97 82.0896C278.12 79.3596 276.22 80.1696 275.84 77.9696C275.13 73.8696 279.28 78.8096 280.93 78.8896C280.98 76.4496 278.43 76.8196 277.14 74.5696C277.48 74.3596 277.3 74.3696 277.97 74.3196C278.25 74.2996 278.63 74.3796 278.91 74.4196C281.1 74.7396 283.77 74.4396 286.15 73.5596H275.09V73.5696Z" fill="white"/>
<path fill-rule="evenodd" clip-rule="evenodd" d="M270.602 73.5693C270.622 74.4393 270.142 74.7793 269.952 75.8193L267.252 75.4393L267.102 73.5693H270.602Z" fill="white"/>
<path fill-rule="evenodd" clip-rule="evenodd" d="M275.09 73.5695C273.31 67.2995 264.31 66.2895 261.88 73.5695H256.07V72.0495C257.35 72.2795 258.43 72.8295 259.84 72.9895C258.69 71.2795 256.85 71.3295 256.07 69.4295V68.8695C257.38 69.5695 260.1 72.0195 261.02 70.4595C261.85 68.1395 259.24 68.1995 258.16 65.1395C260.21 65.9495 260.48 67.3095 262.22 68.5495L264.03 66.9395C263.56 64.9695 262.64 64.2195 261.89 62.4395C264.72 62.3095 262.99 67.3795 267.44 65.7895L267.83 61.4295C267.85 61.4995 267.93 61.1195 268 60.9795C268.51 62.2695 268.43 64.3295 268.44 65.9395L271.85 66.4295C272.33 65.1095 272.84 62.6395 274.19 62.0795C274.84 63.5495 273.21 65.0095 272.93 67.5395C276.05 69.4395 275.01 66.8895 277.97 65.0495C278.12 67.7795 276.22 66.9695 275.84 69.1695C275.13 73.2695 279.28 68.3295 280.93 68.2495C280.98 70.6895 278.43 70.3195 277.14 72.5695C277.48 72.7795 277.3 72.7695 277.97 72.8195C278.25 72.8395 278.63 72.7595 278.91 72.7195C281.1 72.3995 283.77 72.6995 286.15 73.5795H275.09V73.5695Z" fill="white"/>
<path fill-rule="evenodd" clip-rule="evenodd" d="M270.602 73.5693C270.622 72.6993 270.142 72.3593 269.952 71.3193L267.252 71.6993L267.102 73.5693H270.602Z" fill="white"/>
<path fill-rule="evenodd" clip-rule="evenodd" d="M495.04 29.6696C494.19 26.8096 490.54 24.5796 487.43 23.8096C483.81 22.9196 478.36 21.6796 476.79 30.0796C475.95 29.7796 476.49 31.3096 475.7 31.0996C445.25 22.6896 448.17 70.4996 476.21 60.4896C478.41 61.9796 482.84 67.7396 484.28 70.2396C481.86 71.4996 462.31 82.6296 461.38 83.7196C459.09 86.4296 457.78 111.34 457.35 116.95C451.45 117.63 423.37 122.51 418.95 124.29C417.31 124.95 414.63 126.94 412.02 128.28C400.61 134.16 401.57 143.86 403.44 153.46C399.6 152.99 400.77 152.08 397.47 152.92C396.06 158.98 403.56 166.52 409.68 167.17C412.38 161.96 406.41 160.24 415.43 162.84C423.98 165.31 432.55 161.49 437.07 154.28C445.82 140.33 427.08 143.04 460 137.92L475.74 135.34C485.7 133.56 481.83 124.85 486.13 99.5296L511.35 114.51C512.83 115.59 512.24 115.18 513.06 115.88C508.87 125.12 480.47 162.6 480.14 167.3L496 168.59C476.33 211.53 474.86 200.51 485.8 223.03C488.64 228.88 493.05 235.74 494.84 241.64C493.11 245.07 488.43 248.19 488.87 249.77C489.04 249.9 489.37 249.8 489.44 250.02C490.45 252.83 497.38 242.9 497.95 241.64C475.82 198.52 479.89 210.09 490.21 187.36C492.83 181.58 497.01 174.09 498.86 168.7L517.62 170.23C518.4 174.17 512.41 183.09 510.44 187.39C509.34 189.78 502.19 204.24 501.96 205.46C500.96 210.82 516.02 234.35 518.09 241.65C515.71 245.08 510.97 247.88 513.02 251.32C514.51 249.77 515.4 248.47 516.96 246.84C518.67 245.06 520.01 244.17 521.53 242.47C519.54 237.64 504.69 209.27 504.68 207.07C504.67 205.1 519.63 173.73 521.78 170.7L538.74 171.79C535.83 163.15 531.04 154.89 527.48 146.58C523.92 138.26 519.95 130.27 516.38 122.11C513.12 114.65 513.35 117.35 513.26 107.68L512.36 54.1796L486.22 69.0496C484.99 66.1996 481.27 61.3396 479.09 59.4296C482.44 55.1196 488.34 50.0896 484.65 40.3296C491.68 39.9496 495.35 35.7896 495.04 29.6696ZM459.23 118.62C452.44 122.23 430.63 123.68 421.01 125.52C430.68 127.28 436.29 131.55 438.67 139.7L478.74 132.01L481.65 96.4696C476.66 93.7896 469.7 88.6396 464.36 86.5896L459.23 118.62ZM398.44 153.89C401.99 155.18 403.48 155.8 405.4 158.39C406.77 160.23 408.6 162.81 408.71 165.78C403.68 163.22 400.71 160.07 398.44 153.89Z" fill="white"/>
<path fill-rule="evenodd" clip-rule="evenodd" d="M377.606 206.48C377.486 206.27 377.336 205.65 377.256 205.83C376.956 206.55 377.376 202.72 373.566 205.38C372.456 206.15 372.686 206.23 371.956 207.03C372.746 207.53 371.817 207.62 374.617 208.32C379.447 209.54 393.636 207.31 397.676 204.11C399.396 202.75 398.016 204.12 399.136 202.47C395.736 200.59 392.996 200.88 388.726 201.28C388.586 201.5 388.346 201.53 388.306 201.92C388.266 202.32 388.006 202.44 387.966 202.62C387.616 204.14 387.716 203.73 387.656 205.32C387.546 205.11 387.446 204.55 387.406 204.67C386.846 206.45 386.986 203.59 386.896 203.38L385.996 201.52C375.736 203.73 378.146 203.11 377.606 206.48ZM396.446 209.76C397.416 204.6 402.556 208.51 402.066 200.87C399.766 198.94 398.716 198.78 395.096 198.11C394.336 196.6 395.006 199.19 394.356 195.97C394.316 195.76 394.396 193.98 394.396 193.96C394.276 194.19 394.166 194.5 394.096 194.67L393.466 196.07C392.486 198.13 393.196 196.9 392.356 198.09C383.866 198.32 384.746 200.36 382.446 196.16C381.866 199.67 382.656 198.74 379.596 199.95C377.716 196.85 380.096 195.61 378.826 192.67C378.326 195.35 377.046 197.83 378.446 200.22C373.576 201.79 369.536 203.52 368.796 207.94C371.896 212.22 381.806 211.98 372.156 217.83C367.366 220.73 364.496 224.76 361.896 230.31C350.167 255.3 371.796 284.18 400.156 277.62C429.356 270.87 432.347 235.66 416.367 220.4C414.997 219.09 409.576 215.52 407.036 214.28C399.436 210.58 398.956 213.51 396.446 209.76Z" fill="white"/>
<path fill-rule="evenodd" clip-rule="evenodd" d="M455.251 237.1C457.971 235.42 457.511 236.68 459.591 234.58C458.031 228.54 445.671 228.72 441.001 231.09C441.071 235.67 441.291 232.57 443.661 236.19C441.671 238.11 439.971 238.2 437.651 239.61C423.261 248.4 427.531 272.5 445.331 274.3C461.491 275.94 471.651 258.66 463.811 245.81C460.911 241.06 456.901 240.21 455.251 237.1ZM442.471 232.87C443.731 231.64 440.691 231.82 446.061 231.14C449.931 230.65 454.741 232.21 457.851 233.52C454.101 236.52 446.141 234.51 442.471 232.87Z" fill="white"/>
<path fill-rule="evenodd" clip-rule="evenodd" d="M391.677 164.81C393.497 162.66 392.277 163.12 395.197 162.45L394.927 165.85C395.097 165.67 395.567 164.94 395.747 164.74C397.497 162.68 394.017 164.62 397.967 162.84C397.797 162.61 397.597 161.98 397.497 162.14L394.467 159.26C392.437 161.82 391.597 161.32 391.677 164.81ZM394.547 160.93C394.707 160.7 395.117 161.27 395.117 161.55C395.117 161.67 395.367 161.82 395.347 161.8C395.297 161.76 392.787 163.62 394.547 160.93Z" fill="white"/>
<path fill-rule="evenodd" clip-rule="evenodd" d="M393.891 191.13C395.501 189.3 394.681 193.59 395.861 187.58C396.141 186.14 395.951 184.95 395.841 183.51C394.051 185.92 394.151 187.75 393.891 191.13Z" fill="white"/>
<path fill-rule="evenodd" clip-rule="evenodd" d="M399.61 172.15L403.05 165.56C400.61 166.84 402.2 165.21 400.68 167C400.55 167.16 399.65 168.59 399.54 168.83C398.5 171.22 398.85 170.79 399.61 172.15Z" fill="white"/>
<path fill-rule="evenodd" clip-rule="evenodd" d="M396.172 169.529C398.032 167.599 399.182 166.179 400.262 162.979C397.642 164.599 399.822 161.409 397.262 165.619C396.702 166.529 396.342 168.179 396.172 169.529Z" fill="white"/>
<path fill-rule="evenodd" clip-rule="evenodd" d="M385.969 172.409C387.799 171.449 386.379 172.679 387.619 171.289C387.729 171.169 387.919 170.939 388.029 170.789L388.729 169.629C389.459 168.399 389.739 167.669 390.239 166.289C388.449 167.079 388.649 166.939 387.539 168.459C387.429 168.609 387.259 168.829 387.159 168.989L385.969 172.409Z" fill="white"/>
<path fill-rule="evenodd" clip-rule="evenodd" d="M389.878 187.569C390.608 186.569 391.138 185.639 391.578 184.169C391.718 183.689 392.018 182.569 392.008 182.089C391.998 180.199 391.798 181.229 391.458 180.649C389.868 183.219 389.598 184.579 389.878 187.569Z" fill="white"/>
<path fill-rule="evenodd" clip-rule="evenodd" d="M385.297 184.06C387.287 183.17 386.147 184.99 387.607 181.22L387.007 178.84C386.937 179 386.757 179.31 386.667 179.5L385.297 184.06Z" fill="white"/>
<path fill-rule="evenodd" clip-rule="evenodd" d="M383.188 193.469C384.847 190.889 384.628 190.679 385.298 186.789C384.608 187.799 384.698 186.819 383.878 189.349C383.328 190.999 383.377 191.819 383.188 193.469Z" fill="white"/>
<path fill-rule="evenodd" clip-rule="evenodd" d="M382.227 180.629C383.417 179.339 383.207 179.839 384.077 177.839C384.507 176.849 384.847 175.659 385.187 174.329C383.357 176.179 383.027 177.479 382.227 180.629Z" fill="white"/>
<path fill-rule="evenodd" clip-rule="evenodd" d="M379.477 189.979L381.867 183.729C380.877 184.099 380.597 181.739 379.477 189.979Z" fill="white"/>
<path fill-rule="evenodd" clip-rule="evenodd" d="M396.227 181.189L398.627 174.449C396.707 176.019 396.247 177.999 396.227 181.189Z" fill="white"/>
<path fill-rule="evenodd" clip-rule="evenodd" d="M392.367 178.029L395.287 171.579C395.137 171.739 394.887 171.769 394.827 172.069L392.367 178.029Z" fill="white"/>
<path fill-rule="evenodd" clip-rule="evenodd" d="M494.318 31.3694C491.938 39.7394 479.928 41.0894 476.688 31.3694H468.938V33.3994C470.648 33.0894 472.098 32.3494 473.978 32.1494C472.448 34.4294 469.987 34.3694 468.938 36.8994V37.6394C470.688 36.7094 474.318 33.4394 475.548 35.5194C476.658 38.6194 473.178 38.5394 471.738 42.6194C474.468 41.5394 474.838 39.7194 477.158 38.0694L479.578 40.2094C478.948 42.8394 477.717 43.8394 476.717 46.2194C480.497 46.3894 478.178 39.6294 484.128 41.7494L484.647 47.5694C484.677 47.4694 484.778 47.9894 484.868 48.1694C485.558 46.4494 485.447 43.6894 485.457 41.5394L490.017 40.8894C490.657 42.6494 491.337 45.9494 493.147 46.6994C494.027 44.7294 491.847 42.7794 491.467 39.4094C495.627 36.8694 494.247 40.2794 498.197 42.7394C498.407 39.0994 495.858 40.1694 495.348 37.2394C494.398 31.7594 499.937 38.3594 502.147 38.4694C502.217 35.2094 498.807 35.7094 497.077 32.6994C497.527 32.4194 497.298 32.4294 498.188 32.3694C498.558 32.3494 499.068 32.4494 499.438 32.4994C502.368 32.9294 505.928 32.5194 509.098 31.3594H494.318V31.3694Z" fill="white"/>
<path fill-rule="evenodd" clip-rule="evenodd" d="M488.326 31.3691C488.356 32.5391 487.716 32.9891 487.456 34.3691L483.856 33.8691L483.656 31.3691H488.326Z" fill="white"/>
<path fill-rule="evenodd" clip-rule="evenodd" d="M494.318 31.3696C491.938 22.9996 479.928 21.6496 476.688 31.3696H468.938V29.3396C470.648 29.6496 472.098 30.3896 473.978 30.5896C472.448 28.3096 469.987 28.3696 468.938 25.8296V25.0896C470.688 26.0196 474.318 29.2896 475.548 27.2096C476.658 24.1196 473.178 24.1996 471.738 20.1096C474.468 21.1896 474.838 23.0096 477.158 24.6596L479.578 22.5196C478.948 19.8896 477.717 18.8896 476.717 16.5096C480.497 16.3396 478.178 23.0996 484.128 20.9896L484.647 15.1696C484.677 15.2696 484.778 14.7496 484.868 14.5596C485.558 16.2796 485.447 19.0396 485.457 21.1896L490.017 21.8396C490.657 20.0796 491.337 16.7796 493.147 16.0296C494.027 17.9996 491.847 19.9496 491.467 23.3196C495.627 25.8596 494.247 22.4496 498.197 19.9896C498.407 23.6296 495.858 22.5596 495.348 25.4896C494.398 30.9696 499.937 24.3696 502.147 24.2596C502.217 27.5196 498.807 27.0196 497.077 30.0296C497.527 30.3096 497.298 30.2996 498.188 30.3596C498.558 30.3896 499.068 30.2796 499.438 30.2296C502.368 29.7996 505.928 30.2096 509.098 31.3696H494.318Z" fill="white"/>
<path fill-rule="evenodd" clip-rule="evenodd" d="M488.326 31.3691C488.356 30.1991 487.716 29.7491 487.456 28.3691L483.856 28.8691L483.656 31.3691H488.326Z" fill="white"/>
</svg>
