<svg width="94" height="78" viewBox="0 0 94 78" fill="none" xmlns="http://www.w3.org/2000/svg">
<path d="M17.4424 38.0816C12.7315 38.1598 8.53224 40.0699 5.42244 42.8121C2.05134 45.7926 -0.0384635 49.7341 0.000536519 53.3432C0.0513175 57.9213 4.10214 58.4915 9.92244 58.4329C11.024 58.4212 12.231 58.3822 13.481 58.3431C14.8208 58.304 16.2193 58.265 17.6919 58.2415C19.1411 58.222 20.5513 58.2298 21.9107 58.2533C23.149 58.265 24.3521 58.2728 25.481 58.2533C31.2701 58.1947 35.2701 57.5228 35.2193 52.8939C35.149 49.4251 33.1607 45.7337 29.981 42.9056C26.7622 40.015 22.3208 38.0345 17.442 38.0853L17.4424 38.0816ZM15.2041 60.2807C15.0635 63.2807 14.9541 66.2924 15.2432 69.0502C15.5518 71.9408 16.3018 74.5619 17.962 76.6283C19.0011 77.8978 20.2511 78.1595 21.3331 77.8275C21.8917 77.6556 22.4229 77.3392 22.8643 76.9173C23.3057 76.4954 23.6651 75.9681 23.876 75.3978C24.3252 74.1986 24.126 72.7376 22.7862 71.5072C20.3878 69.3158 19.7159 64.2572 19.2667 60.2182L17.7159 60.2299C16.8761 60.2416 16.0361 60.2611 15.2041 60.2807ZM36.2161 48.2026C36.9466 47.8941 37.5677 47.5034 37.9778 47.062C38.3372 46.6714 38.5169 46.2417 38.4075 45.8315L32.5794 28.4606C31.8411 26.2497 31.6302 24.2614 31.7904 22.5504C31.9818 20.5309 32.7122 18.8902 33.7201 17.691C34.0716 17.2691 34.7005 17.2222 35.1185 17.5699C35.5403 17.9292 35.5989 18.5581 35.2396 18.9801C34.4778 19.8785 33.931 21.152 33.7787 22.7301C33.6576 23.9606 33.7669 25.3707 34.2005 26.9293L41.8216 24.8902C44.2435 24.2495 46.1732 22.6793 47.3216 20.6714C48.4818 18.6714 48.8724 16.2105 48.2318 13.7925C47.5834 11.3706 46.013 9.45266 44.013 8.29246C42.0013 7.13226 39.5442 6.74166 37.1224 7.39402L36.3021 7.65574C35.8216 7.87449 35.2435 7.68699 34.9935 7.20652C33.8021 4.92532 31.8841 3.16742 29.5951 2.14792C27.3256 1.14792 24.7357 0.88622 22.1732 1.57761C19.6146 2.2573 17.5013 3.77681 16.0521 5.75731C14.5716 7.77681 13.7709 10.2768 13.8919 12.8667C13.9114 13.3667 13.552 13.8159 13.0403 13.8862C12.7513 13.9448 12.4114 14.0073 12.1302 14.0854C9.70827 14.7339 7.77857 16.3042 6.61847 18.3042C5.47007 20.3159 5.06767 22.7651 5.72003 25.1831C6.36065 27.5815 7.91143 29.5034 9.91923 30.6714C11.9504 31.8433 14.3997 32.2417 16.8176 31.5933L24.427 29.5542C24.0051 27.9761 23.3958 26.6948 22.6887 25.6948C21.7668 24.4057 20.6692 23.5854 19.5598 23.1831C19.0403 23.0034 18.7708 22.4214 18.9583 21.9136C19.138 21.3941 19.7083 21.1246 20.2278 21.3042C21.6966 21.8355 23.138 22.9058 24.3059 24.5425C25.3059 25.9331 26.1262 27.773 26.595 30.062L28.5247 39.3003C29.5247 39.941 30.4544 40.6519 31.3138 41.4214C33.5247 43.3902 35.224 45.7495 36.2122 48.2026L36.2161 48.2026ZM79.8761 33.6246C80.3449 33.8942 80.505 34.5036 80.2355 34.984C79.9543 35.4528 79.3449 35.6247 78.8761 35.3434L72.3175 31.5622C71.8488 31.281 71.6769 30.6716 71.9581 30.1911C72.2277 29.7224 72.8488 29.5622 73.3175 29.8318L79.8761 33.6208V33.6246ZM61.4271 32.316C61.9076 32.5856 62.0678 33.195 61.7982 33.6754C61.5287 34.1442 60.9193 34.3161 60.4388 34.0465L53.888 30.2574C53.4076 29.9879 53.2474 29.3785 53.5169 28.898C53.7865 28.4293 54.3958 28.2574 54.8763 28.5387L61.4271 32.3199V32.316ZM61.1889 46.2771C61.6576 46.5466 61.8295 47.156 61.5599 47.6364C61.2787 48.1052 60.6693 48.2771 60.2005 47.9958L53.6419 44.2146C53.1732 43.9451 53.0013 43.3357 53.2826 42.8552C53.5521 42.3748 54.1615 42.2146 54.642 42.4841L61.1928 46.2732L61.1889 46.2771ZM73.8799 53.3082L69.9697 51.0465C69.5009 50.7653 69.329 50.1559 69.6103 49.6871C69.8915 49.2067 70.5009 49.0465 70.9697 49.3161L75.0713 51.6872C78.0518 47.5778 80.6729 43.527 82.6807 40.0462C84.3799 37.1048 85.6299 34.5774 86.2901 32.765C86.6885 31.6556 86.8487 30.5345 86.7705 29.4447C86.6924 28.3549 86.3721 27.2845 85.8018 26.2142C83.5323 22.0033 80.6729 18.9056 77.1924 16.9056C73.7041 14.8861 69.5713 13.9564 64.8014 14.1048C63.61 14.1438 62.5202 14.4055 61.5397 14.886C60.5592 15.3548 59.6803 16.0579 58.9108 16.9563C57.6608 18.4446 56.1022 20.7844 54.4108 23.718C50.0124 31.3391 44.7624 42.827 41.7118 53.339C41.3524 54.5695 41.0204 55.7804 40.7313 56.9679L46.6415 60.3781C47.1103 60.6594 47.2821 61.2687 47.0009 61.7375C46.7314 62.218 46.122 62.3781 45.6493 62.1086L40.2587 58.9992C38.5595 66.8508 38.5868 73.4402 41.8681 76.2102C42.1064 76.4094 42.3681 76.6008 42.6376 76.7493C42.9189 76.9094 43.2079 77.05 43.497 77.1477C48.4775 78.9485 56.009 73.5461 63.376 65.8587C67.0362 62.0501 70.6377 57.6673 73.876 53.3077L73.8799 53.3082ZM57.2899 58.0387C57.7586 58.3083 57.9305 58.9294 57.6492 59.3982C57.3797 59.8786 56.7703 60.0388 56.2898 59.7692L49.739 55.9801C49.2586 55.7106 49.0984 55.0895 49.3679 54.6207C49.6492 54.1403 50.2586 53.9801 50.739 54.2496L57.2899 58.0387ZM80.4109 16.6597L91.8409 12.6403C92.2901 12.4801 92.6416 12.152 92.8526 11.7184C93.044 11.3082 93.0713 10.8395 92.9111 10.3981C92.7627 9.93713 92.4229 9.58948 92.0205 9.39807C91.6104 9.20666 91.1299 9.1676 90.6689 9.32776L84.3408 11.5466C83.8213 11.7262 83.251 11.4567 83.0713 10.9372C82.962 10.6364 83.0127 10.3161 83.1729 10.0661L86.3526 4.54659C86.5909 4.13643 86.6416 3.64815 86.5323 3.21849C86.4112 2.77708 86.1338 2.39037 85.712 2.14819C85.3018 1.90991 84.8213 1.85913 84.3839 1.97631C83.9425 2.0974 83.5557 2.37475 83.3136 2.7849L80.1027 8.3435C79.8331 8.82397 79.2238 8.98412 78.7433 8.71459C78.4816 8.56615 78.3136 8.31615 78.2628 8.0349L77.0245 1.4333C76.9347 0.964546 76.6534 0.562207 76.2862 0.312197C75.9151 0.050477 75.4464 -0.058893 74.9776 0.030947C74.5089 0.120791 74.1065 0.390327 73.8487 0.761417C73.5987 1.14033 73.4893 1.61298 73.5792 2.08172L75.8097 13.9607C76.63 14.3318 77.4308 14.7302 78.2003 15.1716C78.9698 15.6208 79.712 16.113 80.4191 16.6521L80.4109 16.6597Z" fill="black"/>
</svg>
