<svg width="101" height="101" viewBox="0 0 101 101" fill="none" xmlns="http://www.w3.org/2000/svg">
<path fill-rule="evenodd" clip-rule="evenodd" d="M82.9542 48.1387C81.6682 45.8107 81.3602 43.1617 78.6452 42.0437C74.9932 40.5377 71.1092 42.2527 70.4292 46.1477C70.0992 48.0357 69.2762 48.4267 67.6552 48.3377C65.3562 48.2127 63.0482 48.2507 60.7532 48.0767C57.5782 47.8347 55.1842 49.1847 54.3762 52.1067C53.1972 56.3697 49.8602 59.2927 48.2272 63.2957C45.5592 69.8397 45.4122 76.3407 47.1512 83.0047C47.5262 84.4437 46.9322 84.9597 45.8432 85.5097C38.0302 89.4567 29.9572 90.2467 21.4512 88.0657C13.2612 85.9647 7.11017 81.3097 3.06117 74.0117C-2.78283 63.4727 -0.0408268 49.4657 9.42217 40.8447C15.1682 35.6107 21.9402 33.3357 29.5502 32.5297C37.0122 31.7397 44.4672 30.8547 51.8572 29.3247C56.9682 28.2657 62.0242 27.1997 66.9222 25.4027C68.3402 24.8827 69.4972 24.3067 68.9332 22.4587C67.5802 18.0357 69.6592 13.5497 73.8792 10.9517C77.5452 8.69671 81.4522 8.29171 85.5672 8.65771C87.2902 8.81071 88.3342 8.39971 87.8792 6.32671C87.2042 3.24371 89.0032 0.441706 91.7952 0.0887062C96.1172 -0.458294 99.0002 1.55971 99.2062 5.16871C99.3512 7.71971 98.0792 9.71771 96.6952 11.5847C95.6992 12.9307 95.1902 13.7727 96.5692 15.2887C98.4212 17.3257 99.2912 20.0097 100.066 22.6277C101.066 25.9977 98.8182 32.8927 94.2302 33.8497C90.4982 34.6277 90.2622 38.3667 88.4582 40.7607C86.6612 43.1427 85.3922 45.9167 82.9542 48.1387ZM9.07017 62.4937C9.07017 63.2947 9.02617 64.0977 9.07917 64.8947C9.26417 67.6867 11.2722 69.8767 13.5692 69.8307C16.1252 69.7797 17.6202 67.8257 17.5422 64.6507C17.5002 62.9497 17.3612 61.2417 17.4622 59.5477C17.8932 52.3377 23.2622 46.4577 29.7672 44.7997C36.5382 43.0717 43.5442 42.2837 50.4122 40.9007C53.2782 40.3227 56.0852 39.3727 58.8392 38.3707C59.5112 38.1277 60.8752 37.5317 60.3412 36.3627C59.9832 35.5797 59.2532 34.8057 57.9312 35.2517C50.7172 37.6827 43.1342 37.7297 35.6712 38.5297C32.9222 38.8247 30.2112 38.9247 27.4402 39.5307C17.4262 41.7247 8.99417 52.0977 9.07017 62.4937ZM95.7242 24.6527C95.7622 22.0517 95.7302 21.7187 94.4112 19.3327C90.3132 11.9147 78.6892 10.2487 73.5832 16.8057C72.1502 18.6437 72.2022 20.7057 73.1722 22.3397C74.0642 23.8407 76.4132 23.6687 77.5512 22.7767C80.0482 20.8197 80.2622 23.0017 80.8642 24.2867C82.0932 26.9087 83.4832 27.4997 86.0122 25.9667C87.5222 25.0517 88.1172 24.9667 88.5482 26.9877C88.9212 28.7407 89.6432 30.6847 92.2652 30.2447C94.6272 29.8487 95.6322 28.4097 95.7232 26.1537C95.7422 25.6537 95.7242 25.1527 95.7242 24.6527ZM91.9572 9.96571C94.2962 9.08771 94.4802 7.28971 95.0002 5.86171C95.3092 5.01271 94.6152 4.04071 93.5442 3.80571C92.3902 3.55371 91.9492 4.19771 91.9552 5.27671C91.9632 6.72871 91.9572 8.17871 91.9572 9.96571Z" fill="black"/>
<path fill-rule="evenodd" clip-rule="evenodd" d="M75.6493 99.8817C64.2823 99.7327 55.2403 93.3727 51.4083 83.1107C48.3583 74.9407 50.1383 67.2367 54.8693 60.0837C55.7413 58.7677 56.9213 58.7297 57.9833 59.3087C58.8783 59.7977 59.7013 60.2487 60.7193 60.2857C61.8713 60.3247 62.2033 61.2117 61.7553 61.9127C59.7933 64.9727 60.9363 67.5027 63.2583 69.4537C65.6873 71.4957 69.1083 71.5997 71.1813 69.6087C75.9093 65.0677 80.4433 66.5467 85.1063 69.0687C87.7653 70.5067 89.6333 69.4287 91.4433 67.7287C93.2453 66.0367 93.5293 64.2197 92.2453 61.9087C91.8863 61.2607 89.8483 60.2077 91.5223 59.1587C93.1043 58.1667 94.6463 59.0207 95.5423 60.5407C98.9913 66.3887 101.144 72.2767 99.5383 79.4787C97.4543 88.8217 92.0923 94.9137 83.5533 98.3227C80.9973 99.3417 78.1523 100.447 75.6493 99.8817ZM64.3913 74.5977C60.7273 74.5947 58.4393 76.5157 58.3033 79.3987C58.1603 82.4537 62.2483 85.2227 65.4773 85.3457C68.4543 85.4577 71.6143 82.6027 71.5433 80.0747C71.4653 77.2597 67.9923 74.5997 64.3913 74.5977Z" fill="black"/>
<path fill-rule="evenodd" clip-rule="evenodd" d="M93.0546 53.8293C90.3876 54.7573 87.7346 55.7313 85.0466 56.5963C83.0496 57.2393 82.8706 58.0403 84.4976 59.3933C85.4486 60.1843 86.3046 61.1173 87.0746 62.0853C87.6866 62.8563 89.0916 63.6713 88.0886 64.7473C87.3566 65.5313 85.9506 65.1983 84.9876 64.6553C83.5546 63.8453 81.9236 63.2983 80.6326 62.4273C77.7386 60.4733 75.4916 61.5413 73.1356 63.1613C71.7816 64.0923 70.4996 65.1593 69.0566 65.9173C68.0246 66.4593 66.4896 66.7803 65.7776 65.7063C65.2086 64.8453 65.4536 63.6233 66.3376 62.4833C69.6066 58.2753 69.5556 58.0813 64.5036 56.8323C62.9656 56.4523 61.5516 55.7533 60.0066 55.4733C59.1786 55.3213 58.4886 55.1353 58.3846 54.0783C58.2636 52.8583 59.3166 52.4323 59.9656 52.2193C60.9536 51.8973 62.2786 51.7783 63.1826 52.1873C65.3956 53.1943 67.7036 52.7793 69.9476 53.1103C72.7516 53.5243 73.6356 51.9833 73.9536 49.6493C74.0466 48.9593 73.9716 48.1373 74.3256 47.6183C74.7786 46.9553 74.9156 45.9003 76.0836 45.8283C77.3176 45.7533 77.3596 46.7293 77.8566 47.4353C78.5286 48.3883 78.6356 49.4033 78.8736 50.4603C79.7446 54.3133 80.4086 54.5853 84.2196 53.5213C87.0876 52.7183 90.0336 53.0633 92.9476 52.9853C92.9816 53.2673 93.0176 53.5493 93.0546 53.8293Z" fill="black"/>
</svg>
