<svg width="86" height="71" viewBox="0 0 86 71" fill="none" xmlns="http://www.w3.org/2000/svg">
<path d="M85.2174 68.4597C85.3229 69.0691 85.151 69.6941 84.7487 70.1667C84.3463 70.6393 83.7526 70.905 83.1354 70.8971C83.0182 70.905 82.9049 70.905 82.7916 70.8971L77.8854 70.0534C74.9088 69.5417 72.3815 67.5886 71.1354 64.8425C70.612 65.5027 70.026 66.1042 69.3854 66.6472C67.2292 68.4363 64.5104 69.4167 61.7057 69.4167C60.9596 69.4206 60.2135 69.3503 59.4791 69.2097L51.5103 67.7214V57.3234C51.5103 56.1711 50.5767 55.2414 49.4244 55.2414C48.276 55.2414 47.3424 56.1711 47.3424 57.3234V66.9054L23.3854 62.4249V62.4288C21.026 61.878 19.3542 59.7765 19.3542 57.3546C19.3542 54.9327 21.0261 52.8312 23.3854 52.2804L59.4984 45.4913L59.9789 45.4288V57.3238C59.9789 58.4761 60.9086 59.4058 62.0609 59.4058C63.2132 59.4058 64.1429 58.4761 64.1429 57.3238V45.5428C66.0609 45.949 67.846 46.8123 69.3538 48.0623C69.9944 48.6013 70.5804 49.2029 71.1038 49.8553C72.3538 47.1131 74.8811 45.1639 77.8538 44.6483L82.8108 43.7811C83.4788 43.6678 84.1585 43.8866 84.635 44.367C85.1116 44.8436 85.3303 45.5232 85.217 46.1873L84.3733 51.074C83.928 53.6756 82.3772 55.9529 80.1233 57.324C82.3889 58.6873 83.9514 60.9685 84.4045 63.574L85.2174 68.4597ZM58.7374 41.3777V41.3738C58.9366 41.3386 59.1319 41.3074 59.3312 41.2917C59.5304 41.2605 59.7335 41.241 59.9366 41.241C60.7179 41.241 61.4874 41.4558 62.1554 41.866C62.7648 41.53 63.4484 41.3542 64.1437 41.3542C64.4289 41.3542 64.7101 41.3855 64.9875 41.448C66.9719 41.8738 68.8586 42.6628 70.55 43.78C72.1438 42.3386 74.0656 41.3073 76.1438 40.7722C76.2454 39.9363 76.2961 39.1003 76.3 38.2605C76.3079 34.0496 75.0773 29.9285 72.7609 26.4085C70.4445 22.8929 67.1515 20.1312 63.2804 18.4671C67.5343 17.1663 70.6906 13.5804 71.4484 9.19759L72.6164 2.43589H72.6125C72.7297 1.77183 72.511 1.08819 72.0344 0.611691C71.5539 0.131221 70.8742 -0.0836188 70.2063 0.0296612L63.4563 1.18586C60.6868 1.67024 58.179 3.12336 56.386 5.29136C55.843 4.58042 54.9094 4.29527 54.0618 4.58042C53.2181 4.86558 52.6477 5.65852 52.6438 6.55312V16.8231C45.9836 17.4833 40.0148 21.2137 36.4988 26.9091C32.9871 32.6083 32.3347 39.6161 34.7371 45.8661L58.7374 41.3777ZM57.9249 11.4907C58.4718 8.29148 60.9796 5.78368 64.1749 5.24068L68.0382 4.57271L67.3703 8.42821H67.3742C66.8351 11.6313 64.3273 14.1391 61.1242 14.6782L57.2687 15.3462L57.9249 11.4907ZM15.0299 57.3227C15.0416 54.0883 16.7174 51.0883 19.4674 49.3852C19.401 49.1977 19.3659 49.0024 19.3619 48.8032V44.6352L11.1003 35.979H11.1042C10.694 35.5844 10.4596 35.0415 10.4635 34.4751C10.4635 33.9047 10.694 33.3618 11.1081 32.9712C11.5182 32.5766 12.0729 32.3696 12.6393 32.393C13.2057 32.4204 13.7409 32.6782 14.112 33.104L19.319 38.604V30.061L12.112 22.518V22.5219C11.3151 21.6898 11.3463 20.3696 12.1745 19.5727C13.0065 18.7758 14.3268 18.8031 15.1237 19.6352L19.2917 24.0297V17.7797C19.2917 16.6313 20.2214 15.6977 21.3737 15.6977C22.526 15.6977 23.4557 16.6313 23.4557 17.7797V24.0297L27.6237 19.6352C28.4205 18.8031 29.7409 18.7758 30.5729 19.5727C31.401 20.3695 31.4322 21.6899 30.6354 22.5219L23.4166 30.0649V38.6079L28.6236 33.1079V33.104C28.9087 32.8149 29.2681 32.6157 29.6666 32.5297C30.9478 26.7485 34.2018 21.5917 38.8736 17.9477C38.4556 15.9633 37.3502 14.1938 35.7486 12.9477C34.1392 11.7055 32.147 11.0649 30.1119 11.1352V10.0532C30.0923 5.27594 26.3814 1.32664 21.6119 1.01024C19.2447 0.943836 16.9517 1.83836 15.2525 3.48684C13.5533 5.13524 12.5884 7.40094 12.5806 9.77204V11.1587V11.1548C10.5494 11.0845 8.55717 11.7291 6.94777 12.9673C3.63917 15.6665 2.70557 20.3306 4.71727 24.0923C4.06493 24.4322 3.45947 24.8423 2.90477 25.3228C-0.310031 28.272 -0.935031 33.1119 1.42427 36.7798L10.6626 51.3618L10.6665 51.3657C11.9946 53.4712 12.6977 55.9126 12.686 58.4048C12.7094 60.8853 14.0454 63.1665 16.1977 64.397C17.2758 65.0455 18.5102 65.4048 19.768 65.4361C16.8422 63.7877 15.0299 60.686 15.0299 57.3227ZM23.5299 47.9477L30.5924 46.6235C29.6979 44.0962 29.2174 41.4399 29.1666 38.7602L23.5299 44.6469V47.9477Z" fill="black"/>
</svg>
